<svg width="20" height="20" viewBox="0 0 20 20" fill="none" xmlns="http://www.w3.org/2000/svg">
<g clip-path="url(#clip0_1135_370769)">
<path fill-rule="evenodd" clip-rule="evenodd" d="M10.5108 4.80568L9.94885 5.03633V5.03508C9.79445 5.09884 9.79445 5.31761 9.94885 5.38137L10.5127 5.61327C11.436 5.99269 12.1692 6.72527 12.5492 7.6485L12.7837 8.21732C12.8474 8.37233 13.0662 8.37171 13.13 8.21732L13.3606 7.65538C13.74 6.73215 14.4727 5.99832 15.3953 5.61765L15.9673 5.382C16.1217 5.31886 16.1217 5.10009 15.9673 5.03633L15.3997 4.80256C14.4764 4.42251 13.7438 3.68993 13.3637 2.7667L13.13 2.19914C13.0668 2.04475 12.848 2.04475 12.7843 2.19914L12.5486 2.77108C12.1679 3.69431 11.4341 4.42626 10.5108 4.80568ZM8.38634 3.67628C8.70095 3.6426 8.95835 3.38934 8.95835 3.07293C8.95835 2.75651 8.70098 2.49735 8.38578 2.52504C5.08713 2.81482 2.5 5.58445 2.5 8.95834C2.5 12.5252 5.3915 15.4167 8.95835 15.4167C10.5355 15.4167 11.9806 14.8514 13.102 13.9123L16.2731 17.0834C16.4968 17.3071 16.8596 17.3071 17.0833 17.0834C17.3071 16.8597 17.3071 16.4969 17.0833 16.2732L13.9123 13.1021C14.7365 12.1178 15.2729 10.884 15.3917 9.53057C15.4194 9.21537 15.1602 8.95834 14.8438 8.95834C14.5274 8.95834 14.2741 9.21574 14.2404 9.53036C13.9551 12.1954 11.6991 14.2708 8.95835 14.2708C6.02433 14.2708 3.64584 11.8924 3.64584 8.95834C3.64584 6.21758 5.72132 3.96158 8.38634 3.67628Z" fill="white"/>
</g>
<defs>
<clipPath id="clip0_1135_370769">
<rect width="20" height="20" fill="white"/>
</clipPath>
</defs>
</svg>
