<svg width="58" height="15" viewBox="0 0 58 15" fill="none" xmlns="http://www.w3.org/2000/svg">
<path d="M58.0005 2.25391V14.2263H55.7662V13.0448C55.3886 13.9375 54.5232 14.3838 53.1701 14.3838C52.2785 14.3838 51.5862 14.2079 51.0932 13.8561C50.6002 13.5043 50.2566 13.0107 50.0626 12.3753C49.8685 11.7399 49.7715 10.9391 49.7715 9.97295C49.7715 8.59718 50.018 7.51809 50.511 6.73568C51.004 5.95327 51.8904 5.56207 53.1701 5.56207C53.9043 5.56207 54.4708 5.66709 54.8694 5.87713C55.268 6.08717 55.5564 6.39699 55.7347 6.80657V2.25391H58.0005ZM53.8938 7.26341C53.3903 7.26341 53.0101 7.38156 52.7531 7.61786C52.4961 7.85415 52.3257 8.16396 52.2417 8.54729C52.1578 8.93062 52.1159 9.40584 52.1159 9.97295C52.1159 10.5611 52.1578 11.0442 52.2417 11.4222C52.3257 11.8003 52.4987 12.0996 52.761 12.3202C53.0232 12.5407 53.4008 12.651 53.8938 12.651C54.6386 12.651 55.1499 12.4331 55.4279 11.9972C55.7059 11.5614 55.8449 10.8866 55.8449 9.97295C55.8449 9.09077 55.7006 8.41864 55.4122 7.95655C55.1237 7.49445 54.6176 7.26341 53.8938 7.26341Z" fill="#00346D"/>
<path d="M44.9764 5.5625C45.9205 5.5625 46.66 5.71478 47.1949 6.01934C47.7299 6.3239 48.0996 6.74661 48.3042 7.28747C48.5087 7.82833 48.611 8.49784 48.611 9.296C48.611 9.68457 48.5848 10.0784 48.5323 10.4775L43.0568 10.8241L43.0616 10.8844C43.1126 11.4627 43.3156 11.889 43.6705 12.1631C44.0376 12.4466 44.5988 12.5884 45.354 12.5884C45.8575 12.5884 46.3794 12.528 46.9196 12.4072C47.4598 12.2865 47.8767 12.1473 48.1704 11.9898V13.7856L48.1369 13.8045C47.8626 13.9543 47.4385 14.0872 46.8645 14.2031C46.2666 14.3239 45.6163 14.3843 44.9135 14.3843C44.0009 14.3843 43.243 14.253 42.6399 13.9904C42.0367 13.7279 41.5752 13.2737 41.2553 12.6278C40.9354 11.9819 40.7754 11.0971 40.7754 9.97338C40.7754 8.84966 40.938 7.96486 41.2631 7.31898C41.5883 6.6731 42.0551 6.21888 42.6635 5.95633C43.2719 5.69378 44.0429 5.5625 44.9764 5.5625ZM44.9764 7.27959C44.2841 7.27959 43.799 7.42925 43.521 7.72856C43.243 8.02787 43.0883 8.52934 43.0568 9.23298L46.5341 8.96518L46.5336 8.90149C46.5255 8.39658 46.4208 8.00298 46.2194 7.72068C46.0096 7.42662 45.5953 7.27959 44.9764 7.27959Z" fill="#00346D"/>
<path d="M39.4016 5.7207V14.2274H37.1201V5.7207H39.4016Z" fill="#00346D"/>
<path d="M38.2686 2.14258C38.6462 2.14258 38.919 2.16883 39.0868 2.22134C39.2546 2.27385 39.3726 2.37888 39.4408 2.53641C39.509 2.69394 39.5431 2.95649 39.5431 3.32406C39.5431 3.69164 39.509 3.95944 39.4408 4.12748C39.3726 4.29551 39.252 4.40578 39.0789 4.45829C38.9058 4.5108 38.6357 4.53706 38.2686 4.53706C37.9015 4.53706 37.6314 4.5108 37.4583 4.45829C37.2852 4.40578 37.1646 4.29551 37.0964 4.12748C37.0282 3.95944 36.9941 3.69164 36.9941 3.32406C36.9941 2.96699 37.0282 2.70707 37.0964 2.54428C37.1646 2.3815 37.2852 2.27385 37.4583 2.22134C37.6314 2.16883 37.9015 2.14258 38.2686 2.14258Z" fill="#00346D"/>
<path d="M35.0206 2.19531C35.3248 2.19531 35.65 2.22157 35.9961 2.27408V3.91241L35.9289 3.90234C35.6861 3.86704 35.483 3.84939 35.3195 3.84939C34.9314 3.84939 34.6404 3.9019 34.4463 4.00693C34.2522 4.11195 34.1211 4.29311 34.0529 4.55041C33.9848 4.80771 33.9507 5.19891 33.9507 5.72402H35.6185V7.50413H33.9507V14.2307H31.6692V7.50413H30.3633V5.72402H31.6692V5.64525L31.6696 5.5573C31.6775 4.65516 31.8085 3.96246 32.0626 3.47919C32.3248 2.98034 32.6946 2.64165 33.1718 2.46312C33.6491 2.28458 34.2654 2.19531 35.0206 2.19531Z" fill="#00346D"/>
<path d="M28.8029 5.7207V14.2274H26.5215V5.7207H28.8029Z" fill="#00346D"/>
<path d="M27.67 2.14258C28.0476 2.14258 28.3203 2.16883 28.4881 2.22134C28.656 2.27385 28.774 2.37888 28.8422 2.53641C28.9103 2.69394 28.9444 2.95649 28.9444 3.32406C28.9444 3.69164 28.9103 3.95944 28.8422 4.12748C28.774 4.29551 28.6534 4.40578 28.4803 4.45829C28.3072 4.5108 28.0371 4.53706 27.67 4.53706C27.3028 4.53706 27.0327 4.5108 26.8597 4.45829C26.6866 4.40578 26.566 4.29551 26.4978 4.12748C26.4296 3.95944 26.3955 3.69164 26.3955 3.32406C26.3955 2.96699 26.4296 2.70707 26.4978 2.54428C26.566 2.3815 26.6866 2.27385 26.8597 2.22134C27.0327 2.16883 27.3028 2.14258 27.67 2.14258Z" fill="#00346D"/>
<path d="M24.7344 5.5625V7.59466H24.4511C23.8532 7.59466 23.3393 7.73118 22.9092 8.00424C22.4791 8.27729 22.2064 8.73939 22.091 9.39052V14.2267H19.8096V5.72003H22.091V7.24809C22.3323 6.60746 22.6601 6.16637 23.0744 5.92482C23.4887 5.68327 23.9844 5.5625 24.5613 5.5625H24.7344Z" fill="#00346D"/>
<path d="M14.7997 5.5625C15.7438 5.5625 16.4833 5.71478 17.0182 6.01934C17.5532 6.3239 17.9229 6.74661 18.1275 7.28747C18.332 7.82833 18.4343 8.49784 18.4343 9.296C18.4343 9.68457 18.4081 10.0784 18.3556 10.4775L12.8801 10.8241L12.8849 10.8844C12.9359 11.4627 13.1389 11.889 13.4938 12.1631C13.8609 12.4466 14.4221 12.5884 15.1773 12.5884C15.6808 12.5884 16.2027 12.528 16.7429 12.4072C17.2831 12.2865 17.7 12.1473 17.9937 11.9898V13.7856L17.9602 13.8045C17.6859 13.9543 17.2618 14.0872 16.6878 14.2031C16.0899 14.3239 15.4396 14.3843 14.7368 14.3843C13.8242 14.3843 13.0663 14.253 12.4632 13.9904C11.86 13.7279 11.3985 13.2737 11.0786 12.6278C10.9219 12.3115 10.8036 11.9379 10.7236 11.507L12.7654 5.84913C13.3252 5.65804 14.0033 5.5625 14.7997 5.5625ZM14.7997 7.27959C14.1074 7.27959 13.6223 7.42925 13.3443 7.72856C13.0663 8.02787 12.9116 8.52934 12.8801 9.23298L16.3574 8.96518L16.3569 8.90149C16.3488 8.39658 16.2441 8.00298 16.0427 7.72068C15.8329 7.42662 15.4186 7.27959 14.7997 7.27959Z" fill="#00346D"/>
<path d="M13.2617 0.5L8.22633 14.4528H3.66136L0 4.77586H1.66884C2.76654 4.77586 3.75219 5.44149 4.1656 6.45459L4.19121 6.51973L5.92728 11.1082L9.11217 2.28285C9.49829 1.21293 10.5127 0.5 11.6489 0.5H13.2617Z" fill="#008EFF"/>
</svg>
