<svg width="20" height="21" viewBox="0 0 20 21" fill="none" xmlns="http://www.w3.org/2000/svg">
<g clip-path="url(#clip0_71_2072)">
<path d="M3.64583 4.0765V8.764H2.5V3.55566C2.5 3.21049 2.77982 2.93066 3.125 2.93066H8.33333V4.0765H3.64583Z" fill="#222222"/>
<path d="M2.5 12.0973H3.64583V16.7848H8.33333V17.9307H3.125C2.77982 17.9307 2.5 17.6508 2.5 17.3057V12.0973Z" fill="#222222"/>
<path d="M11.6667 16.7848V17.9307H16.875C17.2202 17.9307 17.5 17.6508 17.5 17.3057V12.0973H16.3542V16.7848H11.6667Z" fill="#222222"/>
<path d="M17.5 8.764H16.3542V4.0765H11.6667V2.93066H16.875C17.2202 2.93066 17.5 3.21049 17.5 3.55566V8.764Z" fill="#222222"/>
<path d="M9.79167 13.764C10.4617 13.764 11.0929 13.5975 11.6461 13.3036L13.3449 15.0024L14.1551 14.1922L12.5791 12.6162C13.3022 11.8989 13.75 10.9046 13.75 9.80567C13.75 7.61954 11.9778 5.84733 9.79167 5.84733C7.60554 5.84733 5.83333 7.61954 5.83333 9.80567C5.83333 11.9918 7.60554 13.764 9.79167 13.764ZM9.79167 12.6182C8.23837 12.6182 6.97917 11.359 6.97917 9.80567C6.97917 8.25236 8.23837 6.99316 9.79167 6.99316C11.345 6.99316 12.6042 8.25236 12.6042 9.80567C12.6042 11.359 11.345 12.6182 9.79167 12.6182Z" fill="#222222"/>
</g>
<defs>
<clipPath id="clip0_71_2072">
<rect width="20" height="20" fill="white" transform="translate(0 0.430664)"/>
</clipPath>
</defs>
</svg>
