<svg width="20" height="20" viewBox="0 0 20 20" fill="none" xmlns="http://www.w3.org/2000/svg">
<g clip-path="url(#clip0_4351_19594)">
<path d="M3.75 13.125V4.375" stroke="#333333" stroke-width="1.2" stroke-linecap="round" stroke-linejoin="round"/>
<path d="M16.25 4.375V13.125" stroke="#333333" stroke-width="1.2" stroke-linecap="round" stroke-linejoin="round"/>
<path d="M7.5 8.75V10" stroke="#333333" stroke-width="1.2" stroke-linecap="round" stroke-linejoin="round"/>
<path d="M10 8.125V10" stroke="#333333" stroke-width="1.2" stroke-linecap="round" stroke-linejoin="round"/>
<path d="M12.5 7.5V10" stroke="#333333" stroke-width="1.2" stroke-linecap="round" stroke-linejoin="round"/>
<path d="M16.875 1.875H3.125C2.77982 1.875 2.5 2.15482 2.5 2.5V3.75C2.5 4.09518 2.77982 4.375 3.125 4.375H16.875C17.2202 4.375 17.5 4.09518 17.5 3.75V2.5C17.5 2.15482 17.2202 1.875 16.875 1.875Z" stroke="#333333" stroke-width="1.2" stroke-linecap="round" stroke-linejoin="round"/>
<path d="M10 13.125V15.625" stroke="#333333" stroke-width="1.2" stroke-linecap="round" stroke-linejoin="round"/>
<path d="M10 18.125C10.6904 18.125 11.25 17.5654 11.25 16.875C11.25 16.1846 10.6904 15.625 10 15.625C9.30964 15.625 8.75 16.1846 8.75 16.875C8.75 17.5654 9.30964 18.125 10 18.125Z" stroke="#333333" stroke-width="1.2" stroke-linecap="round" stroke-linejoin="round"/>
<path d="M2.5 13.125H17.5" stroke="#333333" stroke-width="1.2" stroke-linecap="round" stroke-linejoin="round"/>
</g>
<defs>
<clipPath id="clip0_4351_19594">
<rect width="20" height="20" fill="white"/>
</clipPath>
</defs>
</svg>
