<svg width="100" height="28" viewBox="0 0 100 28" fill="none" xmlns="http://www.w3.org/2000/svg">
<path d="M18.2624 18.6866H20.7885C21.726 18.6866 22.3328 18.0054 22.6123 16.4728C22.8714 15.0014 22.5305 14.344 21.5896 14.344H19.0636L19.459 12.1403C19.9056 9.61989 21.2317 8.37671 23.41 8.37671H23.8259C25.0327 8.37671 25.6974 8.18256 25.7895 7.62057C25.8262 7.12468 25.773 6.62623 25.6326 6.14918C25.5501 5.66374 25.3962 5.19317 25.1758 4.75273C24.8827 4.24524 24.2111 4 23.1543 4C20.5396 4 18.3818 4.71526 16.6773 6.16622C14.9728 7.61717 13.9126 9.54837 13.4387 12.1778L13.0331 14.344H8.57908C8.49385 14.344 3.84213 14.9537 3.84213 14.9537L8.0575 15.7132L8.26204 16.4455L6.00683 16.701L8.41885 17.1676L8.5484 17.7602L2.2002 18.295L9.40064 18.6866H12.2456L11.6955 21.7596C11.4865 22.9273 12.3842 24 13.5705 24H15.7245C16.6483 24 17.439 23.3371 17.6 22.4274L18.2624 18.6866Z" fill="#133FB9"/>
<path d="M36.2841 20L38.2159 8.36364H45.9205L45.5795 10.392H40.3352L39.8807 13.1648H44.6136L44.2727 15.1932H39.5398L38.7443 20H36.2841ZM49.9503 8.36364L48.0185 20H45.598L47.5298 8.36364H49.9503ZM49.9574 20L51.4119 11.2727H53.8324L52.3778 20H49.9574ZM52.8722 10.1364C52.5123 10.1364 52.215 10.017 51.9801 9.77841C51.7491 9.53598 51.6544 9.24811 51.696 8.91477C51.7377 8.57386 51.9006 8.28598 52.1847 8.05114C52.4688 7.8125 52.7907 7.69318 53.1506 7.69318C53.5104 7.69318 53.804 7.8125 54.0312 8.05114C54.2585 8.28598 54.3532 8.57386 54.3153 8.91477C54.2775 9.24811 54.1165 9.53598 53.8324 9.77841C53.5521 10.017 53.232 10.1364 52.8722 10.1364ZM53.7884 23.2727L55.7997 11.2727H58.1861L57.9418 12.7386H58.0497C58.1937 12.5038 58.3849 12.2652 58.6236 12.0227C58.866 11.7765 59.1671 11.572 59.527 11.4091C59.8868 11.2424 60.3092 11.1591 60.794 11.1591C61.4342 11.1591 61.9929 11.3258 62.4702 11.6591C62.9474 11.9886 63.2921 12.4867 63.5043 13.1534C63.7202 13.8163 63.7448 14.6477 63.5781 15.6477C63.419 16.6212 63.1255 17.4432 62.6974 18.1136C62.2732 18.7803 61.7637 19.286 61.169 19.6307C60.5781 19.9716 59.9512 20.142 59.2884 20.142C58.8187 20.142 58.4323 20.0644 58.1293 19.9091C57.83 19.7538 57.5971 19.5587 57.4304 19.3239C57.2637 19.0852 57.1463 18.8447 57.0781 18.6023H56.9872L56.2145 23.2727H53.7884ZM57.4418 15.6364C57.3584 16.1553 57.3546 16.608 57.4304 16.9943C57.5099 17.3807 57.669 17.6818 57.9077 17.8977C58.1463 18.1098 58.4607 18.2159 58.8509 18.2159C59.2448 18.2159 59.5952 18.108 59.902 17.892C60.2088 17.6723 60.4645 17.3693 60.669 16.983C60.8736 16.5928 61.0194 16.1439 61.1065 15.6364C61.1861 15.1326 61.188 14.6894 61.1122 14.3068C61.0365 13.9242 60.8812 13.625 60.6463 13.4091C60.4115 13.1932 60.0933 13.0852 59.6918 13.0852C59.3016 13.0852 58.9512 13.1894 58.6406 13.3977C58.3338 13.6061 58.0781 13.9015 57.8736 14.2841C57.669 14.6667 57.5251 15.1174 57.4418 15.6364ZM67.0653 17.4886L67.5483 14.5852H67.9006L71.2585 11.2727H74.0369L69.5597 15.6591H68.9801L67.0653 17.4886ZM64.4574 20L66.3892 8.36364H68.8097L66.8778 20H64.4574ZM69.9119 20L67.9801 16.1989L69.8722 14.4886L72.7472 20H69.9119ZM76.2358 20.1648C75.6828 20.1648 75.2036 20.0682 74.7983 19.875C74.3968 19.678 74.1013 19.3864 73.9119 19C73.7225 18.6136 73.6752 18.1345 73.7699 17.5625C73.8532 17.0777 74.0104 16.6723 74.2415 16.3466C74.4763 16.017 74.7623 15.7519 75.0994 15.5511C75.4366 15.3504 75.8097 15.197 76.2188 15.0909C76.6316 14.9848 77.0578 14.9129 77.4972 14.875C78.0047 14.822 78.4176 14.7708 78.7358 14.7216C79.0578 14.6723 79.2983 14.6023 79.4574 14.5114C79.6165 14.4167 79.7131 14.2765 79.7472 14.0909V14.0568C79.804 13.7008 79.7377 13.4242 79.5483 13.2273C79.3627 13.0265 79.0653 12.9261 78.6562 12.9261C78.2244 12.9261 77.857 13.0208 77.554 13.2102C77.2547 13.3996 77.0407 13.6402 76.9119 13.9318L74.7074 13.75C74.9044 13.2197 75.2017 12.7614 75.5994 12.375C76.0009 11.9848 76.4839 11.6856 77.0483 11.4773C77.6127 11.2652 78.2453 11.1591 78.946 11.1591C79.4309 11.1591 79.8835 11.2159 80.304 11.3295C80.7282 11.4432 81.0938 11.6193 81.4006 11.858C81.7112 12.0966 81.9347 12.4034 82.071 12.7784C82.2112 13.1496 82.2396 13.5947 82.1562 14.1136L81.1733 20H78.8778L79.0824 18.7898H79.0142C78.8286 19.0625 78.6013 19.303 78.3324 19.5114C78.0634 19.7159 77.7547 19.8769 77.4062 19.9943C77.0578 20.108 76.6676 20.1648 76.2358 20.1648ZM77.2074 18.4943C77.5597 18.4943 77.8835 18.4242 78.179 18.2841C78.4782 18.1402 78.7244 17.947 78.9176 17.7045C79.1146 17.4621 79.2396 17.1875 79.2926 16.8807L79.4403 15.9545C79.3646 16.0038 79.2547 16.0473 79.1108 16.0852C78.9706 16.1231 78.8172 16.1591 78.6506 16.1932C78.4877 16.2235 78.3229 16.2519 78.1562 16.2784C77.9896 16.3011 77.84 16.3239 77.7074 16.3466C77.4157 16.3883 77.1544 16.4545 76.9233 16.5455C76.6922 16.6364 76.5047 16.7595 76.3608 16.9148C76.2169 17.0663 76.1278 17.2557 76.0938 17.483C76.0407 17.8125 76.1184 18.0644 76.3267 18.2386C76.5388 18.4091 76.8324 18.4943 77.2074 18.4943ZM83.0511 20L84.5057 11.2727H86.8523L86.5966 12.7955H86.6875C86.9375 12.2538 87.2727 11.8447 87.6932 11.5682C88.1174 11.2879 88.5739 11.1477 89.0625 11.1477C89.1837 11.1477 89.3106 11.1553 89.4432 11.1705C89.5795 11.1818 89.7008 11.2008 89.8068 11.2273L89.4432 13.3807C89.3371 13.3428 89.1856 13.3125 88.9886 13.2898C88.7955 13.2633 88.6117 13.25 88.4375 13.25C88.0852 13.25 87.7576 13.3277 87.4545 13.483C87.1515 13.6345 86.8958 13.8466 86.6875 14.1193C86.483 14.392 86.3485 14.7064 86.2841 15.0625L85.4716 20H83.0511ZM96.1321 11.2727L95.831 13.0909H90.5696L90.8764 11.2727H96.1321ZM92.4105 9.18182H94.831L93.4787 17.3182C93.4408 17.5417 93.4465 17.7159 93.4957 17.8409C93.545 17.9621 93.6264 18.0473 93.7401 18.0966C93.8575 18.1458 93.9976 18.1705 94.1605 18.1705C94.2741 18.1705 94.3897 18.161 94.5071 18.142C94.6245 18.1193 94.7135 18.1023 94.7741 18.0909L94.8651 19.892C94.7287 19.9337 94.545 19.9792 94.3139 20.0284C94.0866 20.0777 93.8177 20.108 93.5071 20.1193C92.9162 20.142 92.4162 20.0644 92.0071 19.8864C91.598 19.7045 91.3045 19.4261 91.1264 19.0511C90.9484 18.6761 90.9105 18.2045 91.0128 17.6364L92.4105 9.18182Z" fill="#133FB9"/>
</svg>
