<svg width="20" height="20" viewBox="0 0 20 20" fill="none" xmlns="http://www.w3.org/2000/svg">
<g clip-path="url(#clip0_4351_19670)">
<path d="M16.875 6.25H3.125C2.77982 6.25 2.5 6.52982 2.5 6.875V9.375C2.5 9.72018 2.77982 10 3.125 10H16.875C17.2202 10 17.5 9.72018 17.5 9.375V6.875C17.5 6.52982 17.2202 6.25 16.875 6.25Z" stroke="#333333" stroke-width="1.2" stroke-linecap="round" stroke-linejoin="round"/>
<path d="M16.25 10V15.625C16.25 15.7908 16.1842 15.9497 16.0669 16.0669C15.9497 16.1842 15.7908 16.25 15.625 16.25H4.375C4.20924 16.25 4.05027 16.1842 3.93306 16.0669C3.81585 15.9497 3.75 15.7908 3.75 15.625V10" stroke="#333333" stroke-width="1.2" stroke-linecap="round" stroke-linejoin="round"/>
<path d="M10 6.25V16.25" stroke="#333333" stroke-width="1.2" stroke-linecap="round" stroke-linejoin="round"/>
<path d="M13.8117 2.43849C14.5414 3.16818 14.5844 4.39631 13.8117 5.08068C12.4906 6.25021 10 6.25021 10 6.25021C10 6.25021 10 3.75959 11.1719 2.43849C11.8539 1.66584 13.082 1.70881 13.8117 2.43849Z" stroke="#333333" stroke-width="1.2" stroke-linecap="round" stroke-linejoin="round"/>
<path d="M6.18813 2.43849C5.45844 3.16818 5.41547 4.39631 6.18813 5.08068C7.50922 6.25021 9.99985 6.25021 9.99985 6.25021C9.99985 6.25021 9.99985 3.75959 8.82797 2.43849C8.14594 1.66584 6.91782 1.70881 6.18813 2.43849Z" stroke="#333333" stroke-width="1.2" stroke-linecap="round" stroke-linejoin="round"/>
</g>
<defs>
<clipPath id="clip0_4351_19670">
<rect width="20" height="20" fill="white"/>
</clipPath>
</defs>
</svg>
