<svg width="48" height="48" viewBox="0 0 48 48" fill="none" xmlns="http://www.w3.org/2000/svg">
<rect width="48" height="48" rx="8" fill="#7D3407"/>
<g clip-path="url(#clip0_3974_49131)">
<g clip-path="url(#clip1_3974_49131)">
<path d="M24.3942 38.2854C32.9814 38.2854 39.9427 37.3949 39.9427 36.2965C39.9427 35.1981 32.9814 34.3076 24.3942 34.3076C15.807 34.3076 8.8457 35.1981 8.8457 36.2965C8.8457 37.3949 15.807 38.2854 24.3942 38.2854Z" fill="#5E2602"/>
<path d="M21.0871 17.8032H16.1094V35.901H21.0871V17.8032Z" fill="#FADF62"/>
<path d="M32.6257 17.8032H21.0879V35.901H32.6257V17.8032Z" fill="#EB973B"/>
<path d="M16.1094 17.8031H21.0871L18.7356 14.3967L16.1094 17.8031Z" fill="#FFD900"/>
<path d="M27.6475 17.8031H32.6252L30.2737 14.3967L27.6475 17.8031Z" fill="#5959E1"/>
<path d="M21.0878 17.8031H32.6256L30.2741 14.3967H18.7363L21.0878 17.8031Z" fill="#FBEB60"/>
<path d="M30.2741 12.0347H18.7363V14.3972H30.2741V12.0347Z" fill="#EB973B"/>
<path d="M32.6257 24.2971H21.0879V29.088H32.6257V24.2971Z" fill="#FBEB60"/>
<path d="M26.6805 28.4289C27.6393 28.4289 28.4167 27.6663 28.4167 26.7257C28.4167 25.785 27.6393 25.0225 26.6805 25.0225C25.7216 25.0225 24.9443 25.785 24.9443 26.7257C24.9443 27.6663 25.7216 28.4289 26.6805 28.4289Z" fill="#EB973B"/>
<path d="M35.0094 20.1108H32.2184C31.8664 20.1108 31.5811 20.3962 31.5811 20.7482V20.946C31.5811 21.2979 31.8664 21.5833 32.2184 21.5833H35.0094C35.3614 21.5833 35.6467 21.2979 35.6467 20.946V20.7482C35.6467 20.3962 35.3614 20.1108 35.0094 20.1108Z" fill="#FF65CD"/>
<path d="M33.7898 18.2646H33.4272C32.8143 18.2646 32.3174 18.7615 32.3174 19.3745V20.4733C32.3174 21.0862 32.8143 21.5831 33.4272 21.5831H33.7898C34.4028 21.5831 34.8996 21.0862 34.8996 20.4733V19.3745C34.8996 18.7615 34.4028 18.2646 33.7898 18.2646Z" fill="#FF65CD"/>
<path d="M37.7669 19.067V19.6494C37.7669 19.9021 37.5581 20.1109 37.3053 20.1109C37.0526 20.1109 36.8438 19.9021 36.8438 19.6494V19.5175C36.8438 19.3307 36.701 19.1878 36.5142 19.1878H33.7012V18.6384H37.3383C37.5801 18.6384 37.7669 18.8252 37.7669 19.067Z" fill="#FF65CD"/>
<path d="M38.5469 24.2535V35.8902H29.1299V24.2535C29.1299 22.5723 30.4924 21.2097 32.1737 21.2097H35.4921C37.1734 21.2097 38.5359 22.5723 38.5359 24.2535H38.5469Z" fill="#66A7F7"/>
<path d="M38.5469 26.5718H29.1299V30.2639H38.5469V26.5718Z" fill="#1568ED"/>
<path d="M20.8561 30.3296C20.8561 33.4064 18.3617 35.9007 15.285 35.9007C14.4059 35.9007 13.5708 35.692 12.8236 35.3293C10.9775 34.4283 9.71387 32.5273 9.71387 30.3296C9.71387 27.5716 11.7247 25.275 14.3619 24.8355C14.6586 24.7805 14.9773 24.7585 15.285 24.7585C18.3617 24.7585 20.8561 27.2529 20.8561 30.3296Z" fill="#FF9DB6"/>
<path d="M12.8353 35.3293C10.9892 34.4283 9.72559 32.5273 9.72559 30.3296C9.72559 27.5715 11.7365 25.275 14.3737 24.8354L17.0658 26.5277C17.0658 26.5277 9.37396 27.165 12.8353 35.3183V35.3293Z" fill="#DB4DB3"/>
<path d="M18.1415 26.9896C18.0976 27.1654 18.0097 27.3412 17.8778 27.495C17.7679 27.6269 17.6251 27.7588 17.4713 27.8686C17.3394 27.9675 17.1856 28.0445 17.0097 28.1214C16.7131 28.2532 16.3724 28.3411 16.0098 28.3961C15.6802 28.451 15.3175 28.451 14.9659 28.4181H14.9549C14.7022 28.3961 14.4605 28.3411 14.2297 28.2862C13.8891 28.1873 13.5924 28.0554 13.3506 27.8906C13.2298 27.8137 13.1199 27.7258 13.032 27.6379C12.6913 27.2973 12.5375 26.8907 12.6474 26.4621C12.8891 25.5281 14.3176 24.8908 15.834 25.0446C15.856 25.0446 15.8779 25.0446 15.8889 25.0446C16.1636 25.0776 16.4274 25.1325 16.6691 25.1985C17.713 25.5281 18.3284 26.2424 18.1415 26.9896Z" fill="#FF65CD"/>
<path d="M18.0428 22.4183C17.2296 22.8798 16.7132 23.638 16.3945 24.4402C15.911 25.6709 15.8671 27.0444 15.889 27.7367H15.8781C15.6473 27.7916 15.4275 27.8246 15.2188 27.8466C15.2188 27.7806 15.2188 27.7037 15.2188 27.6268C15.2188 26.8906 15.2737 25.7038 15.6803 24.5501C16.0429 23.4842 16.6912 22.4513 17.812 21.825L17.9109 22.0667L18.0647 22.4293L18.0428 22.4183Z" fill="#BAF267"/>
<path d="M17.8882 22.0555C17.097 22.6159 16.5696 23.3631 16.218 24.1213C15.6136 25.4399 15.5477 26.8354 15.5587 27.5277H15.5477C15.4378 27.5716 15.3169 27.6046 15.207 27.6266C15.207 27.187 15.218 26.5827 15.3279 25.9234C15.3499 25.7695 15.3828 25.6047 15.4158 25.4399C15.4158 25.3959 15.4378 25.352 15.4488 25.308C15.4488 25.308 15.4488 25.286 15.4488 25.2751C15.4708 25.1542 15.5037 25.0333 15.5477 24.9014C15.5806 24.7806 15.6136 24.6597 15.6576 24.5388C16.0202 23.473 16.6685 22.4401 17.7893 21.8137L17.8882 22.0555Z" fill="#6EA532"/>
<path d="M15.5817 25.4178C15.5817 25.4178 15.4718 25.4398 15.4169 25.4398C15.3839 25.4398 15.362 25.4398 15.329 25.4398C12.5489 25.7145 11.9336 22.4839 11.9336 22.4839C14.8016 22.5498 15.4169 24.0772 15.5488 24.9013C15.5927 25.209 15.5707 25.4178 15.5707 25.4178H15.5817Z" fill="#BAF267"/>
<path d="M15.5817 25.4178C15.5817 25.4178 15.4718 25.4398 15.4169 25.4398C15.3839 25.4398 15.362 25.4398 15.329 25.4398C12.5489 25.7145 11.9336 22.4839 11.9336 22.4839L15.4169 25.2859L15.4389 25.3079L15.5707 25.4178H15.5817Z" fill="#6EA532"/>
<path d="M17.4605 27.8683C17.3286 27.9672 17.1748 28.0441 16.999 28.121C16.7023 28.2529 16.3616 28.3408 15.999 28.3957C15.6694 28.4507 15.3068 28.4507 14.9551 28.4177H14.9441C14.6914 28.3957 14.4497 28.3408 14.2189 28.2858C13.8783 28.1869 13.5816 28.0551 13.3398 27.8903C13.9442 27.5057 14.7024 27.2749 15.5045 27.2749C16.2847 27.2749 16.966 27.5057 17.4605 27.8683Z" fill="#DB4DB3"/>
</g>
</g>
<defs>
<clipPath id="clip0_3974_49131">
<rect width="31.9998" height="31.9998" fill="white" transform="translate(8.52539 8)"/>
</clipPath>
<clipPath id="clip1_3974_49131">
<rect width="31.108" height="26.2512" fill="white" transform="translate(8.8457 12.0347)"/>
</clipPath>
</defs>
</svg>
