<svg width="24" height="24" viewBox="0 0 24 24" fill="none" xmlns="http://www.w3.org/2000/svg">
<path d="M16.875 17.25H7.79719C7.44591 17.2499 7.10579 17.1266 6.83612 16.9015C6.56646 16.6764 6.38435 16.3637 6.32156 16.0181L3.93 2.86594C3.8986 2.69313 3.80755 2.53681 3.67272 2.42425C3.53789 2.31169 3.36783 2.25003 3.19219 2.25H1.5" stroke="#333333" stroke-width="1.4" stroke-linecap="round" stroke-linejoin="round"/>
<path d="M7.875 21C8.91053 21 9.75 20.1605 9.75 19.125C9.75 18.0895 8.91053 17.25 7.875 17.25C6.83947 17.25 6 18.0895 6 19.125C6 20.1605 6.83947 21 7.875 21Z" stroke="#333333" stroke-width="1.4" stroke-linecap="round" stroke-linejoin="round"/>
<path d="M16.875 21C17.9105 21 18.75 20.1605 18.75 19.125C18.75 18.0895 17.9105 17.25 16.875 17.25C15.8395 17.25 15 18.0895 15 19.125C15 20.1605 15.8395 21 16.875 21Z" stroke="#333333" stroke-width="1.4" stroke-linecap="round" stroke-linejoin="round"/>
<path d="M5.86406 13.5H17.6344C17.9857 13.4999 18.3258 13.3766 18.5954 13.1515C18.8651 12.9264 19.0472 12.6137 19.11 12.2681L20.25 6H4.5" stroke="#333333" stroke-width="1.4" stroke-linecap="round" stroke-linejoin="round"/>
</svg>
