<svg width="48" height="48" viewBox="0 0 48 48" fill="none" xmlns="http://www.w3.org/2000/svg">
<rect width="48" height="48" rx="8" fill="#FFDD44"/>
<g clip-path="url(#clip0_3974_49133)">
<rect x="6.22656" y="10" width="35.1824" height="28" rx="5.09091" fill="#FFDD44"/>
<path d="M17.1166 33.1844C16.056 33.1844 15.1544 32.8132 14.412 32.0708C13.6696 31.3283 13.2984 30.4268 13.2984 29.3662H12.0257C11.6651 29.3662 11.3628 29.2442 11.1188 29.0003C10.8749 28.7564 10.7529 28.4541 10.7529 28.0935V25.548C10.7529 24.148 11.2514 22.9495 12.2484 21.9526C13.2454 20.9556 14.4438 20.4571 15.8438 20.4571H18.3893C19.0893 20.4571 19.6885 20.7064 20.187 21.2048C20.6855 21.7033 20.9347 22.3026 20.9347 23.0026V26.8208H25.3893L29.8438 21.2844V17.9117H27.2984C26.9378 17.9117 26.6355 17.7897 26.3916 17.5458C26.1476 17.3018 26.0257 16.9995 26.0257 16.6389C26.0257 16.2783 26.1476 15.9761 26.3916 15.7321C26.6355 15.4882 26.9378 15.3662 27.2984 15.3662H29.8438C30.5438 15.3662 31.1431 15.6155 31.6416 16.1139C32.1401 16.6124 32.3893 17.2117 32.3893 17.9117V21.2844C32.3893 21.5814 32.3416 21.8624 32.2461 22.1276C32.1507 22.3927 32.0181 22.642 31.8484 22.8753L27.4257 28.4117C27.1923 28.7086 26.8954 28.942 26.5347 29.1117C26.1741 29.2814 25.8029 29.3662 25.4211 29.3662H20.9347C20.9347 30.4268 20.5635 31.3283 19.8211 32.0708C19.0787 32.8132 18.1772 33.1844 17.1166 33.1844ZM17.1166 30.6389C17.4772 30.6389 17.7794 30.517 18.0234 30.273C18.2673 30.0291 18.3893 29.7268 18.3893 29.3662H15.8438C15.8438 29.7268 15.9658 30.0291 16.2097 30.273C16.4537 30.517 16.756 30.6389 17.1166 30.6389ZM19.662 19.1844H15.8438C15.4832 19.1844 15.181 19.0624 14.937 18.8185C14.6931 18.5745 14.5711 18.2723 14.5711 17.9117C14.5711 17.5511 14.6931 17.2488 14.937 17.0048C15.181 16.7609 15.4832 16.6389 15.8438 16.6389H19.662C20.0226 16.6389 20.3249 16.7609 20.5688 17.0048C20.8128 17.2488 20.9347 17.5511 20.9347 17.9117C20.9347 18.2723 20.8128 18.5745 20.5688 18.8185C20.3249 19.0624 20.0226 19.1844 19.662 19.1844ZM32.3893 33.1844C31.3287 33.1844 30.4272 32.8132 29.6847 32.0708C28.9423 31.3283 28.5711 30.4268 28.5711 29.3662C28.5711 28.3056 28.9423 27.4041 29.6847 26.6617C30.4272 25.9192 31.3287 25.548 32.3893 25.548C33.4499 25.548 34.3514 25.9192 35.0938 26.6617C35.8363 27.4041 36.2075 28.3056 36.2075 29.3662C36.2075 30.4268 35.8363 31.3283 35.0938 32.0708C34.3514 32.8132 33.4499 33.1844 32.3893 33.1844ZM32.3893 30.6389C32.7499 30.6389 33.0522 30.517 33.2961 30.273C33.5401 30.0291 33.662 29.7268 33.662 29.3662C33.662 29.0056 33.5401 28.7033 33.2961 28.4594C33.0522 28.2155 32.7499 28.0935 32.3893 28.0935C32.0287 28.0935 31.7264 28.2155 31.4825 28.4594C31.2385 28.7033 31.1166 29.0056 31.1166 29.3662C31.1166 29.7268 31.2385 30.0291 31.4825 30.273C31.7264 30.517 32.0287 30.6389 32.3893 30.6389Z" fill="#AD004B"/>
</g>
<defs>
<clipPath id="clip0_3974_49133">
<rect width="35.6364" height="28" fill="white" transform="translate(6 10)"/>
</clipPath>
</defs>
</svg>
