<svg width="20" height="20" viewBox="0 0 20 20" fill="none" xmlns="http://www.w3.org/2000/svg">
<g clip-path="url(#clip0_4351_12878)">
<path d="M15.8297 13.8401C15.8858 13.9372 15.9154 14.0474 15.9155 14.1595C15.9156 14.2717 15.8862 14.3819 15.8303 14.4791C15.7744 14.5763 15.6939 14.6572 15.597 14.7135C15.5 14.7698 15.3899 14.7997 15.2777 14.8001H2.63775C2.52559 14.7997 2.41551 14.7698 2.31854 14.7135C2.22156 14.6572 2.14108 14.5763 2.08518 14.4791C2.02928 14.3819 1.9999 14.2717 2 14.1595C2.0001 14.0474 2.02967 13.9372 2.08575 13.8401C2.61375 12.9281 3.21375 11.2641 3.21375 8.40009V7.76009C3.21268 7.00135 3.36173 6.2499 3.65233 5.54902C3.94292 4.84813 4.3693 4.21167 4.90693 3.67627C5.44455 3.14088 6.08278 2.71715 6.78487 2.42947C7.48696 2.1418 8.23902 1.99587 8.99775 2.00009C9.38437 2.00224 9.81104 2.0001 10.6644 2.42676" stroke="#333333" stroke-width="1.2" stroke-linecap="round" stroke-linejoin="round"/>
<path d="M6.39795 14.7998V15.4398C6.39795 16.1188 6.66766 16.7699 7.14776 17.25C7.62785 17.7301 8.27899 17.9998 8.95795 17.9998C9.6369 17.9998 10.288 17.7301 10.7681 17.25C11.2482 16.7699 11.5179 16.1188 11.5179 15.4398V14.7998" stroke="#333333" stroke-width="1.2" stroke-linecap="round" stroke-linejoin="round"/>
<path d="M13.9999 9C14.5522 9 14.9999 8.55228 14.9999 8C14.9999 7.44772 14.5522 7 13.9999 7C13.4476 7 12.9999 7.44772 12.9999 8C12.9999 8.55228 13.4476 9 13.9999 9Z" stroke="#333333" stroke-width="1.2" stroke-linecap="round" stroke-linejoin="round"/>
<path d="M16.6678 6.09082C16.7603 6.22994 16.8414 6.37713 16.91 6.53078L17.9057 7.11201C18.03 7.69666 18.0313 8.30275 17.9095 8.88799L16.91 9.46922C16.8414 9.62287 16.7603 9.77006 16.6678 9.90918L16.687 11.108C16.2651 11.5117 15.7656 11.8159 15.2224 12L14.2421 11.3824C14.0808 11.3946 13.9189 11.3946 13.7577 11.3824L12.7812 11.996C12.2362 11.8152 11.7352 11.5122 11.3127 11.108L11.332 9.91322C11.2402 9.77217 11.1592 9.62371 11.0898 9.46922L10.0941 8.88799C9.96978 8.30334 9.96847 7.69725 10.0903 7.11201L11.0898 6.53078C11.1584 6.37713 11.2394 6.22994 11.332 6.09082L11.3127 4.89203C11.7347 4.4883 12.2341 4.18414 12.7774 4L13.7577 4.61756C13.9189 4.60545 14.0808 4.60545 14.2421 4.61756L15.2185 4.00404C15.7635 4.18482 16.2646 4.48781 16.687 4.89203L16.6678 6.09082Z" stroke="#333333" stroke-width="1.2" stroke-linecap="round" stroke-linejoin="round"/>
</g>
<defs>
<clipPath id="clip0_4351_12878">
<rect width="20" height="20" fill="white"/>
</clipPath>
</defs>
</svg>
