<svg width="48" height="48" viewBox="0 0 48 48" fill="none" xmlns="http://www.w3.org/2000/svg">
<path d="M0 16C0 8.45753 0 4.68629 2.34315 2.34315C4.68629 0 8.45753 0 16 0H32C39.5425 0 43.3137 0 45.6569 2.34315C48 4.68629 48 8.45753 48 16V32C48 39.5425 48 43.3137 45.6569 45.6569C43.3137 48 39.5425 48 32 48H16C8.45753 48 4.68629 48 2.34315 45.6569C0 43.3137 0 39.5425 0 32V16Z" fill="#1162F2"/>
<g clip-path="url(#clip0_3974_49132)">
<g clip-path="url(#clip1_3974_49132)">
<path d="M21.9129 15.5956C21.8397 16.0196 20.5051 17.0894 20.1203 17.4568L18.929 16.2092C20.3019 14.8982 20.8235 14.3295 21.2089 14.5972C21.2094 14.5977 21.2109 14.5983 21.2115 14.5988C21.593 14.9214 21.9519 15.371 21.9134 15.595L21.9129 15.5956Z" fill="#BDD1FF"/>
<path d="M18.9288 16.2094L18.5612 15.8244C19.6856 14.7507 20.097 14.2677 20.5075 14.2279C20.6685 14.2124 20.9442 14.3739 21.2087 14.5973C20.8233 14.3296 20.3023 14.8978 18.9288 16.2094Z" fill="#BDD1FF"/>
<path d="M26.3836 16.9679C26.3104 17.392 24.9758 18.4617 24.591 18.8291L23.3997 17.5816C24.7726 16.2705 25.2942 15.7018 25.6796 15.9695C25.6801 15.97 25.6816 15.9706 25.6822 15.9711C26.0637 16.2937 26.4226 16.7433 26.3841 16.9674L26.3836 16.9679Z" fill="#BDD1FF"/>
<path d="M23.3995 17.5817L23.0319 17.1967C24.1563 16.123 24.5677 15.64 24.9782 15.6002C25.1392 15.5847 25.415 15.7462 25.6794 15.9696C25.294 15.7019 24.773 16.2701 23.3995 17.5817Z" fill="#BDD1FF"/>
<path d="M33.4695 27.6981C33.3963 28.1222 32.0617 29.1919 31.6769 29.5594L30.4856 28.3118C31.8585 27.0008 32.3801 26.432 32.7655 26.6997C32.766 26.7003 32.7676 26.7008 32.7681 26.7014C33.1497 27.0239 33.5085 27.4735 33.4701 27.6976L33.4695 27.6981Z" fill="#BDD1FF"/>
<path d="M30.4854 28.3119L30.1178 27.9269C31.2423 26.8532 31.6537 26.3703 32.0642 26.3304C32.2251 26.3149 32.5009 26.4764 32.7654 26.6999C32.38 26.4322 31.8589 27.0004 30.4854 28.3119Z" fill="#BDD1FF"/>
<path d="M32.3094 23.1742C32.2362 23.5983 30.9015 24.668 30.5168 25.0354L29.3254 23.7879C30.6984 22.4768 31.22 21.9081 31.6054 22.1758C31.6059 22.1763 31.6074 22.1769 31.6079 22.1774C31.9895 22.5 32.3484 22.9496 32.3099 23.1737L32.3094 23.1742Z" fill="#BDD1FF"/>
<path d="M29.3253 23.788L28.9577 23.403C30.0821 22.3293 30.4935 21.8463 30.904 21.8065C31.0649 21.791 31.3407 21.9525 31.6052 22.1759C31.2198 21.9082 30.6988 22.4764 29.3253 23.788Z" fill="#BDD1FF"/>
<path d="M26.5596 24.8725C26.4223 25.2831 26.7066 25.7241 27.2302 26.4095C26.5569 25.7043 25.6197 24.7218 25.6197 24.7218C25.6197 24.7218 28.0314 22.4752 29.6394 20.9396C29.8669 21.7021 30.0952 22.4709 30.32 23.2338C29.8648 21.7727 29.4485 22.0494 28.9985 22.433C28.5368 22.8258 26.7355 24.3473 26.5596 24.8725Z" fill="#BDD1FF"/>
<path d="M33.1973 35.0034C33.0338 35.3468 32.7411 36.1627 32.368 35.3366C32.0698 34.6755 29.5659 30.2355 28.0998 27.6472C27.769 27.0633 27.365 26.5503 27.23 26.4089C26.7069 25.7241 26.4221 25.2825 26.5594 24.872C26.7352 24.3468 28.5366 22.8253 28.9983 22.4325C29.4483 22.0488 29.8646 21.7721 30.3198 23.2333C30.3295 23.267 30.3403 23.3007 30.351 23.3365C31.8853 28.5213 33.2876 33.3806 33.4066 33.8658C33.5449 34.4247 33.3592 34.6604 33.1962 35.0033L33.1973 35.0034Z" fill="white"/>
<path d="M20.4292 19.6147C17.9108 18.0302 13.5904 15.3248 12.9443 14.9959C12.1362 14.5852 12.9647 14.3315 13.3159 14.1835C13.6655 14.036 13.91 13.8619 14.4614 14.0253C15.0134 14.1881 21.2904 16.3211 27.1809 18.3789C26.6551 18.2166 15.4335 14.7533 14.7876 14.6494C14.1261 14.5419 13.6256 14.8438 13.8986 15.0591C14.1712 15.2739 19.1057 18.5251 19.5325 18.8351C19.9593 19.1451 20.7844 19.6593 21.625 20.5395C21.4905 20.3987 20.9967 19.9715 20.4287 19.6141L20.4292 19.6147Z" fill="#BDD1FF"/>
<path d="M14.7883 14.6499C15.4342 14.7539 26.6558 18.2172 27.1816 18.3794C27.1946 18.3834 27.2009 18.3856 27.2009 18.3856C25.6468 19.8697 23.2374 22.2267 23.2374 22.2267C23.2374 22.2267 22.2986 21.2447 21.6257 20.5401C20.7852 19.6598 19.9595 19.1461 19.5332 18.8356C19.1064 18.5256 14.1719 15.2744 13.8994 15.0597C13.6268 14.8449 14.1268 14.5435 14.7883 14.6499Z" fill="white"/>
<path d="M10.5926 28.8927C10.0964 28.6192 10.352 28.4396 10.8079 27.9807C11.2958 27.4902 11.455 27.6494 11.8326 27.681C12.4774 27.7346 15.2811 28.5093 16.7895 28.9708C16.7885 28.9708 16.7879 28.9713 16.7885 28.9718C14.4561 28.5549 12.1593 28.0446 11.7358 28.0088C11.35 27.976 10.8454 28.5304 11.0352 28.7013C11.2886 28.9292 14.8877 31.3929 15.0227 31.4851L15.0232 31.4856C14.9065 31.4169 11.788 29.5528 10.5926 28.8937L10.5926 28.8927Z" fill="#BDD1FF"/>
<path d="M18.3503 31.7407C18.7662 31.836 19.6208 35.7452 19.6465 35.8609C19.647 35.8625 19.647 35.8635 19.647 35.8635C19.6611 36.2421 19.8123 36.4079 19.2998 36.8727C18.8204 37.3069 18.6287 37.5545 18.3789 37.0458C18.1661 36.6132 17.814 35.933 17.444 35.2299C16.8274 33.9893 16.3464 32.8436 16.6885 32.6049C17.2459 32.2159 18.0453 31.6696 18.3508 31.7402L18.3503 31.7407Z" fill="#BDD1FF"/>
<path d="M18.5945 30.853C18.9851 32.3759 19.6203 35.2068 19.6461 35.8608C19.6209 35.7456 18.7663 31.8365 18.3499 31.7407C18.0439 31.6695 17.2445 32.2158 16.6876 32.6053C16.3465 32.844 16.827 33.9893 17.443 35.2303C16.7673 33.9439 16.0337 32.5786 15.992 32.5018C16.6999 32.1677 17.5776 31.6049 18.5904 30.8487L18.5945 30.853Z" fill="#BDD1FF"/>
<path d="M15.0225 31.4839C14.8874 31.3928 11.2878 28.9286 11.0349 28.7001C10.8452 28.5292 11.3497 27.9758 11.7356 28.0076C12.1596 28.0439 14.4558 28.5537 16.7882 28.9706C15.9892 29.9455 15.3888 30.7932 15.0225 31.4828L15.0225 31.4839Z" fill="#BDD1FF"/>
<path d="M15.0423 32.829C13.9403 33.8363 12.9647 34.6615 12.7292 34.6407C12.7193 34.4034 13.5944 33.4623 14.6562 32.4033C14.6192 32.5657 14.6076 32.7119 14.622 32.8404C14.745 32.8601 14.8858 32.8556 15.0434 32.8291L15.0423 32.829Z" fill="#BDD1FF"/>
<path d="M19.9956 27.7021C20.2482 27.9666 19.467 28.6348 17.8547 30.1745C17.1054 30.8899 16.0235 31.9323 15.0421 32.8295C14.8851 32.8555 14.7438 32.8605 14.6208 32.8408C14.6068 32.7128 14.6185 32.5666 14.655 32.4037C15.5949 31.4673 16.6801 30.4392 17.4262 29.7268C18.9926 28.231 19.7013 27.4816 19.9725 27.6822C19.9802 27.6882 19.9879 27.6951 19.9951 27.7026L19.9956 27.7032L19.9956 27.7021Z" fill="#BDD1FF"/>
<path d="M35.1947 12.5931C34.8485 12.589 34.4306 12.7495 34.1409 12.9586C34.3626 12.9168 34.553 12.8947 34.7156 12.895C31.0198 15.3504 22.726 23.4596 21.3179 24.8226C19.9231 26.1739 17.9243 28.2034 18.1616 28.4518C18.3988 28.7003 19.5857 27.3785 19.9724 27.6818C19.7012 27.4812 18.9925 28.2306 17.4261 29.7264C16.6795 30.4393 15.5948 31.4669 14.6549 32.4033C14.7141 32.14 14.8386 31.8328 15.0215 31.4851L15.0221 31.4856C15.0221 31.4856 15.0221 31.4846 15.0216 31.484C15.3879 30.7944 15.9883 29.9466 16.7873 28.9718C16.7909 28.9724 16.7951 28.9736 16.7993 28.9737C16.7962 28.9726 16.7925 28.9709 16.7883 28.9708C18.3099 27.1124 20.5484 24.7947 23.2377 22.2267C23.2377 22.2267 25.6471 19.8697 27.2012 18.3856C30.9121 14.8984 34.391 11.4401 36.2432 12.1856L36.2431 12.1919C36.0222 12.1725 35.6606 12.3181 35.1947 12.5931Z" fill="#BDD1FF"/>
<path d="M19.973 27.6812C19.5863 27.3778 18.4095 28.7103 18.1621 28.4512C17.9146 28.192 19.9236 26.1733 21.3184 24.8219C22.726 23.4594 31.0203 15.3497 34.7162 12.8943C35.0018 12.8928 35.2008 12.9578 35.3265 13.0895L35.327 13.09C35.5244 13.2967 35.5474 13.6739 35.4033 14.2794C35.7477 13.8461 35.9886 13.0991 35.6685 12.7639L35.668 12.7634C35.554 12.644 35.3856 12.5939 35.1952 12.5925C35.6617 12.318 36.0227 12.1718 36.2436 12.1913C36.2457 12.1913 36.2483 12.1919 36.2509 12.1925C36.9102 14.077 33.2952 17.3929 29.6406 20.939C28.033 22.4741 25.6208 24.7212 25.6208 24.7212C22.9343 27.2866 20.5174 29.4144 18.5919 30.8487C17.5786 31.6044 16.7014 32.1677 15.9935 32.5017C15.6309 32.673 15.3124 32.7836 15.0431 32.8289C16.0244 31.9317 17.1063 30.8894 17.8556 30.1739C19.468 28.6343 20.2497 27.9666 19.9966 27.7016L19.9961 27.7011C19.9889 27.6936 19.9812 27.6866 19.9735 27.6806L19.973 27.6812Z" fill="white"/>
<path d="M34.1408 12.9585C34.4305 12.7494 34.8484 12.59 35.1946 12.593C35.0451 12.6805 34.8849 12.7813 34.715 12.8944C34.5528 12.8947 34.3619 12.9162 34.1403 12.958L34.1408 12.9585Z" fill="#BDD1FF"/>
<path d="M35.4021 14.2799C35.5458 13.6739 35.5233 13.2972 35.3259 13.0905L35.3254 13.09C35.1991 12.9577 35.0007 12.8933 34.715 12.8948C34.8849 12.7817 35.0446 12.6804 35.1946 12.5935C35.3845 12.5944 35.5534 12.645 35.6674 12.7644L35.6679 12.7649C35.988 13.1001 35.7476 13.8477 35.4027 14.2804L35.4021 14.2799Z" fill="#BDD1FF"/>
</g>
</g>
<defs>
<clipPath id="clip0_3974_49132">
<rect width="28" height="28" fill="white" transform="translate(10 10)"/>
</clipPath>
<clipPath id="clip1_3974_49132">
<rect width="29.1993" height="32.5138" fill="white" transform="translate(26.1641 1.63037) rotate(46.3213)"/>
</clipPath>
</defs>
</svg>
