<svg width="95" height="95" fill="none" xmlns="http://www.w3.org/2000/svg"><g clip-path="url(#a)" fill="#767676"><path d="M31.25 32.563c0-.725.588-1.313 1.313-1.313h12.25c.724 0 1.312.588 1.312 1.313v13.562H32.562a1.313 1.313 0 0 1-1.312-1.312v-12.25Zm2.406 11.156H43.72V33.657H33.656v10.062Zm-2.406 5.469c0-.725.588-1.313 1.313-1.313h13.562v13.563c0 .725-.588 1.312-1.313 1.312h-12.25a1.313 1.313 0 0 1-1.312-1.312v-12.25Zm2.406 11.156H43.72V50.282H33.656v10.062Zm14.219-12.469v13.563c0 .725.588 1.312 1.313 1.312h12.25c.724 0 1.312-.587 1.312-1.312v-12.25c0-.725-.588-1.313-1.313-1.313H47.876Zm12.469 12.47H50.28V50.281h10.063v10.062Zm2.406-21.657a7.438 7.438 0 1 1-14.875 0 7.438 7.438 0 0 1 14.875 0Zm-2.406 0a5.031 5.031 0 1 0-10.063 0 5.031 5.031 0 0 0 10.063 0Z"/></g><defs><clipPath id="a"><path fill="#fff" transform="translate(26 26)" d="M0 0h42v42H0z"/></clipPath></defs></svg>